<?xml version="1.0" encoding="UTF-8"?>
<svg width="910px" height="111px" viewBox="0 0 910 111" version="1.1" xmlns="http://www.w3.org/2000/svg" xmlns:xlink="http://www.w3.org/1999/xlink">
    <!-- Generator: Sketch 52.6 (67491) - http://www.bohemiancoding.com/sketch -->
    <title>modulargrid</title>
    <desc>Created with Sketch.</desc>
    <g id="Page-1" stroke="none" stroke-width="1" fill="none" fill-rule="evenodd">
        <g id="websitelogo-light" transform="translate(-47.000000, -51.000000)" fill="#eeeeee" fill-rule="nonzero">
            <g id="modulargrid" transform="translate(47.000000, 51.000000)">
                <polyline id="path3046" points="83.1249998 110 105 110 105 8 70.5833332 8 52.7916665 73.6131805 52.4999999 73.6131805 36.0208333 8 0 8 0 110 21.875 110 21.875 29.3352436 22.1666667 29.3352436 44.1875001 110 59.9375 110 82.8333332 29.3352436 83.1249998 29.3352436 83.1249998 110"></polyline>
                <path d="M120,58.4999999 C120,88.3129992 133.777431,111 162.927488,111 C192.077552,111 206,88.3129992 206,58.4999999 C206,28.6870008 192.077552,6 162.927488,6 C133.777431,6 120,28.6870008 120,58.4999999 M144.36425,58.4999999 C144.36425,39.0124855 149.150098,23.1606648 162.927488,23.1606648 C176.70487,23.1606648 181.63575,39.0124855 181.63575,58.4999999 C181.63575,77.9875143 176.70487,93.8393351 162.927488,93.8393351 C149.150098,93.8393351 144.36425,77.9875143 144.36425,58.4999999" id="path3048"></path>
                <path d="M224,110 L257.239286,110 C283.010694,110 306,95.0945152 306,59.876791 C306,21.4441667 283.303551,8 260.314286,8 L224,8 L224,110 M248.014286,25.8280802 L254.164286,25.8280802 C272.760714,25.8280802 280.814285,38.8338312 280.814285,59.876791 C280.814285,78.4355097 273.053571,92.1719197 255.628571,92.1719197 L248.014286,92.1719197 L248.014286,25.8280802" id="path3050"></path>
                <path d="M319,72.556338 C319,97.6535009 333.308633,111 355.999998,111 C378.691385,111 393,97.6535009 393,72.556338 L393,8 L369.296876,8 L369.296876,76.3281689 C369.296876,86.4830783 365.539062,92.7211268 355.999998,92.7211268 C346.460956,92.7211268 342.703124,86.4830783 342.703124,76.3281689 L342.703124,8 L319,8 L319,72.556338" id="path3052"></path>
                <polyline id="path3054" points="412 110 469 110 469 91.5873926 435.665821 91.5873926 435.665821 8 412 8 412 110"></polyline>
                <path d="M542.433962,110 L567,110 L534.245282,8 L507.924526,8 L474,110 L497.103771,110 L504.122641,87.2034385 L536.146227,87.2034385 L542.433962,110 M531.466982,69.9598854 L508.509433,69.9598854 L520.646227,27.5816619 L520.938677,27.5816619 L531.466982,69.9598854" id="path3056"></path>
                <path d="M577,110 L600.663325,110 L600.663325,68.7908311 C609.320639,68.7908311 612.494988,68.7908513 616.39078,82.6733524 L624.182364,110 L649,110 L638.61122,76.6819484 C634.859718,64.5530291 631.973947,60.4613181 624.615229,59.5845274 L624.615229,59.2922635 C644.094167,55.3467049 644.67134,38.5415474 644.67134,34.3037249 C644.67134,15.4527424 630.53104,8 613.937874,8 L577,8 L577,110 M599.797595,25.243553 L607.012023,25.243553 C619.709398,25.243553 621.008015,33.8653295 621.008015,38.1031517 C621.008015,45.4097422 616.246493,51.547278 607.156311,51.547278 L599.797595,51.547278 L599.797595,25.243553" id="path3058"></path>
                <path d="M735.934974,98.6385042 C731.121264,101.547091 720.618628,102.274238 714.346222,102.274238 C687.506172,102.274238 673.065026,84.0955475 673.065026,58.4999999 C673.065026,33.3407403 687.943781,14.7257618 714.346222,14.7257618 C723.244289,14.7257618 732.579966,15.7437673 740.45694,20.1066482 L741.623902,10.799169 C734.768015,7.30886425 722.077327,6 714.346222,6 C682.838355,6 663,27.6690155 663,58.4999999 C663,89.9127019 682.254874,111 714.346222,111 C725.578186,111 735.643255,109.254848 746,104.746537 L746,54.2825485 L712.304042,54.2825485 L712.304042,63.0083103 L735.934974,63.0083103 L735.934974,98.6385042" id="path3060"></path>
                <path d="M770.583334,110 L779.770835,110 L779.770835,73.3103448 C779.770835,59.9157291 783.708354,43.6091954 798.291666,43.6091954 C800.624998,43.6091954 803.104165,43.9003831 805,44.4827585 L805,34.8735631 C803.395832,34.4367816 800.770833,34 798.583333,34 C789.104165,34 782.833334,41.7164752 779.479168,50.0153256 L779.187501,50.0153256 L779.187501,35.7471266 L770,35.7471266 C770.583334,41.1340995 770.583334,44.1915708 770.583334,52.3448276 L770.583334,110" id="path3062"></path>
                <path d="M819,109 L828,109 L828,34.9452056 L819,34.9452056 L819,109 M828,3 L819,3 L819,15.1972603 L828,15.1972603 L828,3" id="path3064"></path>
                <path d="M910,0 L900.854835,0 L900.854835,47.488189 L900.564511,47.488189 C899.25808,43.8464568 891.999993,33.2125984 877.483879,33.2125984 C855.7097,33.2125984 847,49.5275793 847,72.1062992 C847,94.102342 857.161313,111 877.483879,111 C888.080637,111 895.629047,106.92126 900.564511,97.4527558 L900.854835,97.4527558 L900.854835,109.251968 L910,109.251968 L910,0 M857.016114,72.1062992 C857.016114,57.6850597 861.516135,41.0787403 878.935474,41.0787403 C895.193542,41.0787403 900.854835,58.5590754 900.854835,72.1062992 C900.854835,85.653523 895.193542,103.133858 878.935474,103.133858 C861.516135,103.133858 857.016114,86.5275387 857.016114,72.1062992" id="path3066"></path>
            </g>
        </g>
    </g>
</svg>